<svg width="739" height="695" viewBox="0 0 739 695" fill="none" xmlns="http://www.w3.org/2000/svg">
<path d="M706.815 347.5C706.815 539.419 550.786 695 358.315 695C165.844 695 9.81494 539.419 9.81494 347.5C9.81494 155.581 165.844 0 358.315 0C550.786 0 706.815 155.581 706.815 347.5Z" fill="#D5F0FF"/>
<path fill-rule="evenodd" clip-rule="evenodd" d="M359.316 12.5001C164.512 10.71 6.69214 181.856 22.8156 376C37.82 556.67 190.598 686.655 371.816 681.499C560.36 676.135 704.129 518.865 694.316 330.5C684.919 150.106 539.947 14.16 359.316 12.5001ZM30.8154 376C13.9101 188.006 170.576 18.3458 359.316 20.5001C533.582 22.4892 678.087 156.441 686.816 330.5C695.912 511.851 553.306 668.82 371.816 674.499C197.34 679.959 46.4497 549.86 30.8154 376Z" fill="#0C82D9"/>
<path fill-rule="evenodd" clip-rule="evenodd" d="M665.818 330.996C655.491 167.112 522.526 40.5792 358.317 40.4967C184.812 40.4096 43.4951 191.168 51.3295 364.496C58.8114 530.027 192.617 654.751 358.317 654.996C533.395 655.255 676.83 505.727 665.818 330.996ZM66.8294 364.496C58.2494 202.81 196.404 57.7061 358.317 57.4967C511.214 57.299 639.122 178.406 648.818 330.996C659.158 493.705 521.354 640.46 358.317 639.996C204.893 639.56 74.9595 517.705 66.8294 364.496Z" fill="#0C82D9"/>
<path d="M713.998 166.912C713.998 176.412 712.229 180.819 705.998 191.412C699.768 202.004 691.546 209.509 680.816 215.5C657.816 226 641.599 227.92 613.998 234.412C534.447 253.123 408 247.912 408 247.912C408 247.912 248.152 239.631 150.499 258.912C102.078 268.472 55.1897 271.806 19.9973 306.412C7.51875 318.682 0.996865 325.41 0.996826 342.911V511.91L17.3132 492.999L28.3147 458.999C28.3147 458.999 81.4577 431.872 115.998 426.91C200.508 414.772 247.703 416.12 333 412.41C422.902 408.501 475.999 411.41 560.499 404.41C615.197 399.879 649.998 393.411 691.998 370.911C704.451 364.24 714.498 350.038 714.498 335.911V291.412L713.998 205.412V166.912Z" fill="#0C82D9"/>
<path d="M688.998 149.912C673.071 146.726 645.816 151 645.816 151C645.816 151 672.316 192 680.816 215.5C691.546 209.509 699.768 202.004 705.998 191.412C712.229 180.819 713.998 176.412 713.998 166.912C707.023 156.777 703.998 152.912 688.998 149.912Z" fill="#1D4686"/>
<path d="M28.3147 458.999C26.4972 460.242 64.8136 542.999 71.8147 544.999C71.8147 544.999 41.3201 546.254 26.4973 538.91C13.9973 532.718 3.6284 521.91 0.996826 511.91C-1.63475 501.91 28.3147 458.999 28.3147 458.999Z" fill="#1D4686"/>
<path d="M713.655 173.01C713.654 182.507 711.884 186.915 705.655 197.505C699.424 208.097 691.203 215.602 680.473 221.593C657.473 232.093 641.255 234.013 613.655 240.505C534.103 259.216 407.656 254.005 407.656 254.005C407.656 254.005 247.809 245.724 150.156 265.005C101.734 274.565 54.8475 277.9 19.6551 312.505C7.17657 324.775 0.654939 331.504 0.6549 349.005L0.654412 362.5C0.655628 345.003 7.51987 329.769 19.9973 317.5C55.1897 282.895 101.734 280.06 150.156 270.5C247.809 251.219 407.518 261 407.518 261C407.518 261 533.965 264.211 613.516 245.5C641.116 239.008 657.473 237.5 680.473 227C691.203 221.009 701.829 212 705.359 206C708.888 200 713.654 196.005 713.654 186.505L713.655 173.01Z" fill="#EBEBEB"/>
<path d="M28.3117 448.088C37.3633 442 81.4544 420.96 115.995 415.999C200.505 403.861 247.699 405.209 332.996 401.499C422.898 397.589 475.995 400.499 560.495 393.499C615.194 388.968 649.995 382.5 691.995 360C704.447 353.329 714.495 339.127 714.495 325L714.498 331.238C714.498 345.364 704.451 359.567 691.998 366.237C649.998 388.737 615.197 395.206 560.499 399.737C475.999 406.737 422.902 403.827 333 407.737C247.703 411.447 200.509 410.098 115.998 422.237C81.4579 427.198 28.3151 454.326 28.3151 454.326C28.3151 454.326 3.26473 490.218 0.997192 504.001L0.993774 497.763C3.26132 483.98 19.26 454.175 28.3117 448.088Z" fill="#E0E5E8"/>
<path d="M204.369 472.068V475.818H189.914V472.068H204.369ZM190.869 460.818V487H186.846V460.818H190.869ZM207.437 460.818V487H203.414V460.818H207.437ZM225.761 487.545C223.238 487.545 221.062 486.989 219.232 485.875C217.414 484.75 216.011 483.182 215.022 481.17C214.045 479.148 213.556 476.795 213.556 474.114C213.556 471.432 214.045 469.068 215.022 467.023C216.011 464.966 217.386 463.364 219.147 462.216C220.92 461.057 222.988 460.477 225.352 460.477C226.715 460.477 228.062 460.705 229.391 461.159C230.721 461.614 231.931 462.352 233.022 463.375C234.113 464.386 234.982 465.727 235.63 467.398C236.278 469.068 236.602 471.125 236.602 473.568V475.273H216.42V471.795H232.511C232.511 470.318 232.215 469 231.624 467.841C231.045 466.682 230.215 465.767 229.136 465.097C228.067 464.426 226.806 464.091 225.352 464.091C223.749 464.091 222.363 464.489 221.192 465.284C220.033 466.068 219.141 467.091 218.516 468.352C217.891 469.614 217.579 470.966 217.579 472.409V474.727C217.579 476.705 217.92 478.381 218.602 479.756C219.295 481.119 220.255 482.159 221.482 482.875C222.71 483.58 224.136 483.932 225.761 483.932C226.817 483.932 227.772 483.784 228.624 483.489C229.488 483.182 230.232 482.727 230.857 482.125C231.482 481.511 231.965 480.75 232.306 479.841L236.192 480.932C235.783 482.25 235.096 483.409 234.13 484.409C233.164 485.398 231.971 486.17 230.55 486.727C229.13 487.273 227.533 487.545 225.761 487.545ZM258.88 460.818V464.568H246.744V487H242.721V460.818H258.88ZM271.097 487.614C269.438 487.614 267.933 487.301 266.58 486.676C265.228 486.04 264.154 485.125 263.359 483.932C262.563 482.727 262.165 481.273 262.165 479.568C262.165 478.068 262.461 476.852 263.052 475.92C263.643 474.977 264.433 474.239 265.421 473.705C266.41 473.17 267.501 472.773 268.694 472.511C269.898 472.239 271.109 472.023 272.325 471.864C273.915 471.659 275.205 471.506 276.194 471.403C277.194 471.29 277.921 471.102 278.376 470.841C278.842 470.58 279.075 470.125 279.075 469.477V469.341C279.075 467.659 278.614 466.352 277.694 465.42C276.785 464.489 275.404 464.023 273.552 464.023C271.631 464.023 270.126 464.443 269.035 465.284C267.944 466.125 267.177 467.023 266.734 467.977L262.915 466.614C263.597 465.023 264.506 463.784 265.643 462.898C266.79 462 268.04 461.375 269.393 461.023C270.756 460.659 272.097 460.477 273.415 460.477C274.256 460.477 275.222 460.58 276.313 460.784C277.415 460.977 278.478 461.381 279.501 461.994C280.535 462.608 281.393 463.534 282.075 464.773C282.756 466.011 283.097 467.67 283.097 469.75V487H279.075V483.455H278.87C278.597 484.023 278.143 484.631 277.506 485.278C276.87 485.926 276.023 486.477 274.967 486.932C273.91 487.386 272.62 487.614 271.097 487.614ZM271.711 484C273.302 484 274.643 483.688 275.734 483.062C276.836 482.438 277.665 481.631 278.222 480.642C278.79 479.653 279.075 478.614 279.075 477.523V473.841C278.904 474.045 278.529 474.233 277.95 474.403C277.381 474.562 276.722 474.705 275.972 474.83C275.234 474.943 274.512 475.045 273.808 475.136C273.114 475.216 272.552 475.284 272.12 475.341C271.075 475.477 270.097 475.699 269.188 476.006C268.29 476.301 267.563 476.75 267.006 477.352C266.461 477.943 266.188 478.75 266.188 479.773C266.188 481.17 266.705 482.227 267.739 482.943C268.785 483.648 270.109 484 271.711 484ZM288.803 480.318H293.099C293.19 481.5 293.724 482.398 294.701 483.011C295.69 483.625 296.974 483.932 298.553 483.932C300.167 483.932 301.548 483.602 302.695 482.943C303.843 482.273 304.417 481.193 304.417 479.705C304.417 478.83 304.201 478.068 303.769 477.42C303.337 476.761 302.729 476.25 301.945 475.886C301.161 475.523 300.235 475.341 299.167 475.341H294.667V471.727H299.167C300.769 471.727 301.951 471.364 302.712 470.636C303.485 469.909 303.871 469 303.871 467.909C303.871 466.739 303.457 465.801 302.627 465.097C301.798 464.381 300.621 464.023 299.099 464.023C297.565 464.023 296.286 464.369 295.263 465.062C294.241 465.744 293.701 466.625 293.644 467.705H289.417C289.462 466.295 289.894 465.051 290.712 463.972C291.531 462.881 292.644 462.028 294.053 461.415C295.462 460.79 297.076 460.477 298.894 460.477C300.735 460.477 302.332 460.801 303.684 461.449C305.048 462.085 306.099 462.955 306.837 464.057C307.587 465.148 307.962 466.386 307.962 467.773C307.962 469.25 307.548 470.443 306.718 471.352C305.888 472.261 304.849 472.909 303.599 473.295V473.568C304.587 473.636 305.445 473.955 306.173 474.523C306.911 475.08 307.485 475.812 307.894 476.722C308.303 477.619 308.508 478.614 308.508 479.705C308.508 481.295 308.082 482.682 307.229 483.864C306.377 485.034 305.207 485.943 303.718 486.591C302.229 487.227 300.531 487.545 298.621 487.545C296.769 487.545 295.11 487.244 293.644 486.642C292.178 486.028 291.013 485.182 290.15 484.102C289.298 483.011 288.849 481.75 288.803 480.318ZM318.181 481.068L330.795 460.818H335.431V487H331.408V466.75L318.863 487H314.158V460.818H318.181V481.068ZM342.799 496.818V460.818H346.685V464.977H347.163C347.458 464.523 347.867 463.943 348.39 463.239C348.924 462.523 349.685 461.886 350.674 461.33C351.674 460.761 353.026 460.477 354.731 460.477C356.935 460.477 358.879 461.028 360.56 462.131C362.242 463.233 363.555 464.795 364.498 466.818C365.441 468.841 365.913 471.227 365.913 473.977C365.913 476.75 365.441 479.153 364.498 481.188C363.555 483.21 362.248 484.778 360.577 485.892C358.907 486.994 356.981 487.545 354.799 487.545C353.117 487.545 351.771 487.267 350.759 486.71C349.748 486.142 348.969 485.5 348.424 484.784C347.879 484.057 347.458 483.455 347.163 482.977H346.822V496.818H342.799ZM346.754 473.909C346.754 475.886 347.043 477.631 347.623 479.142C348.202 480.642 349.049 481.818 350.163 482.67C351.276 483.511 352.64 483.932 354.254 483.932C355.935 483.932 357.339 483.489 358.464 482.602C359.6 481.705 360.452 480.5 361.021 478.989C361.6 477.466 361.89 475.773 361.89 473.909C361.89 472.068 361.606 470.409 361.038 468.932C360.481 467.443 359.634 466.267 358.498 465.403C357.373 464.528 355.958 464.091 354.254 464.091C352.617 464.091 351.242 464.506 350.129 465.335C349.015 466.153 348.174 467.301 347.606 468.778C347.038 470.244 346.754 471.955 346.754 473.909ZM382.685 487.545C380.322 487.545 378.248 486.983 376.464 485.858C374.691 484.733 373.305 483.159 372.305 481.136C371.316 479.114 370.822 476.75 370.822 474.045C370.822 471.318 371.316 468.937 372.305 466.903C373.305 464.869 374.691 463.29 376.464 462.165C378.248 461.04 380.322 460.477 382.685 460.477C385.049 460.477 387.117 461.04 388.89 462.165C390.674 463.29 392.06 464.869 393.049 466.903C394.049 468.937 394.549 471.318 394.549 474.045C394.549 476.75 394.049 479.114 393.049 481.136C392.06 483.159 390.674 484.733 388.89 485.858C387.117 486.983 385.049 487.545 382.685 487.545ZM382.685 483.932C384.481 483.932 385.958 483.472 387.117 482.551C388.276 481.631 389.134 480.42 389.691 478.92C390.248 477.42 390.526 475.795 390.526 474.045C390.526 472.295 390.248 470.665 389.691 469.153C389.134 467.642 388.276 466.42 387.117 465.489C385.958 464.557 384.481 464.091 382.685 464.091C380.89 464.091 379.413 464.557 378.254 465.489C377.094 466.42 376.237 467.642 375.68 469.153C375.123 470.665 374.844 472.295 374.844 474.045C374.844 475.795 375.123 477.42 375.68 478.92C376.237 480.42 377.094 481.631 378.254 482.551C379.413 483.472 380.89 483.932 382.685 483.932ZM400.69 487V460.818H411.394C414.212 460.818 416.451 461.455 418.11 462.727C419.769 464 420.599 465.682 420.599 467.773C420.599 469.364 420.127 470.597 419.184 471.472C418.241 472.335 417.031 472.92 415.553 473.227C416.519 473.364 417.457 473.705 418.366 474.25C419.286 474.795 420.048 475.545 420.65 476.5C421.252 477.443 421.553 478.602 421.553 479.977C421.553 481.318 421.212 482.517 420.531 483.574C419.849 484.631 418.871 485.466 417.599 486.08C416.326 486.693 414.803 487 413.031 487H400.69ZM404.508 483.318H413.031C414.417 483.318 415.502 482.989 416.286 482.33C417.07 481.67 417.462 480.773 417.462 479.636C417.462 478.284 417.07 477.222 416.286 476.449C415.502 475.665 414.417 475.273 413.031 475.273H404.508V483.318ZM404.508 471.795H411.394C412.474 471.795 413.4 471.648 414.173 471.352C414.945 471.045 415.536 470.614 415.945 470.057C416.366 469.489 416.576 468.818 416.576 468.045C416.576 466.943 416.116 466.08 415.195 465.455C414.275 464.818 413.008 464.5 411.394 464.5H404.508V471.795ZM445.165 472.068V475.818H430.711V472.068H445.165ZM431.665 460.818V487H427.643V460.818H431.665ZM448.234 460.818V487H444.211V460.818H448.234ZM473.103 472.068V475.818H458.648V472.068H473.103ZM459.603 460.818V487H455.58V460.818H459.603ZM476.171 460.818V487H472.148V460.818H476.171ZM491.222 487.614C489.563 487.614 488.058 487.301 486.705 486.676C485.353 486.04 484.279 485.125 483.484 483.932C482.688 482.727 482.29 481.273 482.29 479.568C482.29 478.068 482.586 476.852 483.177 475.92C483.768 474.977 484.558 474.239 485.546 473.705C486.535 473.17 487.626 472.773 488.819 472.511C490.023 472.239 491.234 472.023 492.45 471.864C494.04 471.659 495.33 471.506 496.319 471.403C497.319 471.29 498.046 471.102 498.501 470.841C498.967 470.58 499.2 470.125 499.2 469.477V469.341C499.2 467.659 498.739 466.352 497.819 465.42C496.91 464.489 495.529 464.023 493.677 464.023C491.756 464.023 490.251 464.443 489.16 465.284C488.069 466.125 487.302 467.023 486.859 467.977L483.04 466.614C483.722 465.023 484.631 463.784 485.768 462.898C486.915 462 488.165 461.375 489.518 461.023C490.881 460.659 492.222 460.477 493.54 460.477C494.381 460.477 495.347 460.58 496.438 460.784C497.54 460.977 498.603 461.381 499.626 461.994C500.66 462.608 501.518 463.534 502.2 464.773C502.881 466.011 503.222 467.67 503.222 469.75V487H499.2V483.455H498.995C498.722 484.023 498.268 484.631 497.631 485.278C496.995 485.926 496.148 486.477 495.092 486.932C494.035 487.386 492.745 487.614 491.222 487.614ZM491.836 484C493.427 484 494.768 483.688 495.859 483.062C496.961 482.438 497.79 481.631 498.347 480.642C498.915 479.653 499.2 478.614 499.2 477.523V473.841C499.029 474.045 498.654 474.233 498.075 474.403C497.506 474.562 496.847 474.705 496.097 474.83C495.359 474.943 494.637 475.045 493.933 475.136C493.239 475.216 492.677 475.284 492.245 475.341C491.2 475.477 490.222 475.699 489.313 476.006C488.415 476.301 487.688 476.75 487.131 477.352C486.586 477.943 486.313 478.75 486.313 479.773C486.313 481.17 486.83 482.227 487.864 482.943C488.91 483.648 490.234 484 491.836 484ZM526.315 487V464.5H519.36C517.792 464.5 516.559 464.864 515.661 465.591C514.763 466.318 514.315 467.318 514.315 468.591C514.315 469.841 514.718 470.824 515.525 471.54C516.343 472.256 517.462 472.614 518.883 472.614H527.337V476.364H518.883C517.11 476.364 515.582 476.051 514.298 475.426C513.013 474.801 512.025 473.909 511.332 472.75C510.638 471.58 510.292 470.193 510.292 468.591C510.292 466.977 510.656 465.591 511.383 464.432C512.11 463.273 513.15 462.381 514.502 461.756C515.866 461.131 517.485 460.818 519.36 460.818H530.133V487H526.315ZM508.86 487L516.292 473.977H520.656L513.224 487H508.86ZM216.607 545.545C214.244 545.545 212.17 544.983 210.386 543.858C208.613 542.733 207.227 541.159 206.227 539.136C205.238 537.114 204.744 534.75 204.744 532.045C204.744 529.318 205.238 526.937 206.227 524.903C207.227 522.869 208.613 521.29 210.386 520.165C212.17 519.04 214.244 518.477 216.607 518.477C218.971 518.477 221.039 519.04 222.812 520.165C224.596 521.29 225.982 522.869 226.971 524.903C227.971 526.937 228.471 529.318 228.471 532.045C228.471 534.75 227.971 537.114 226.971 539.136C225.982 541.159 224.596 542.733 222.812 543.858C221.039 544.983 218.971 545.545 216.607 545.545ZM216.607 541.932C218.403 541.932 219.88 541.472 221.039 540.551C222.198 539.631 223.056 538.42 223.613 536.92C224.17 535.42 224.448 533.795 224.448 532.045C224.448 530.295 224.17 528.665 223.613 527.153C223.056 525.642 222.198 524.42 221.039 523.489C219.88 522.557 218.403 522.091 216.607 522.091C214.812 522.091 213.335 522.557 212.175 523.489C211.016 524.42 210.158 525.642 209.602 527.153C209.045 528.665 208.766 530.295 208.766 532.045C208.766 533.795 209.045 535.42 209.602 536.92C210.158 538.42 211.016 539.631 212.175 540.551C213.335 541.472 214.812 541.932 216.607 541.932ZM254.043 509L256.089 511.455C255.293 512.227 254.373 512.767 253.327 513.074C252.282 513.381 251.1 513.568 249.782 513.636C248.464 513.705 246.998 513.773 245.384 513.841C243.566 513.909 242.06 514.352 240.867 515.17C239.674 515.989 238.754 517.17 238.106 518.716C237.458 520.261 237.043 522.159 236.862 524.409H237.202C238.089 522.773 239.316 521.568 240.884 520.795C242.452 520.023 244.134 519.636 245.93 519.636C247.975 519.636 249.816 520.114 251.452 521.068C253.089 522.023 254.384 523.438 255.339 525.312C256.293 527.188 256.771 529.5 256.771 532.25C256.771 534.989 256.282 537.352 255.305 539.341C254.339 541.33 252.981 542.864 251.231 543.943C249.492 545.011 247.452 545.545 245.112 545.545C242.771 545.545 240.719 544.994 238.958 543.892C237.197 542.778 235.827 541.131 234.85 538.949C233.873 536.756 233.384 534.045 233.384 530.818V528.023C233.384 522.193 234.373 517.773 236.35 514.761C238.339 511.75 241.327 510.193 245.316 510.091C246.725 510.045 247.981 510.034 249.083 510.057C250.185 510.08 251.146 510.028 251.964 509.903C252.782 509.778 253.475 509.477 254.043 509ZM245.112 541.932C246.691 541.932 248.049 541.534 249.185 540.739C250.333 539.943 251.214 538.824 251.827 537.381C252.441 535.926 252.748 534.216 252.748 532.25C252.748 530.341 252.435 528.716 251.81 527.375C251.197 526.034 250.316 525.011 249.168 524.307C248.021 523.602 246.646 523.25 245.043 523.25C243.873 523.25 242.822 523.449 241.89 523.847C240.958 524.244 240.163 524.83 239.504 525.602C238.844 526.375 238.333 527.318 237.969 528.432C237.617 529.545 237.43 530.818 237.407 532.25C237.407 535.182 238.094 537.528 239.469 539.29C240.844 541.051 242.725 541.932 245.112 541.932ZM273.56 545.545C271.197 545.545 269.123 544.983 267.339 543.858C265.566 542.733 264.18 541.159 263.18 539.136C262.191 537.114 261.697 534.75 261.697 532.045C261.697 529.318 262.191 526.937 263.18 524.903C264.18 522.869 265.566 521.29 267.339 520.165C269.123 519.04 271.197 518.477 273.56 518.477C275.924 518.477 277.992 519.04 279.765 520.165C281.549 521.29 282.935 522.869 283.924 524.903C284.924 526.937 285.424 529.318 285.424 532.045C285.424 534.75 284.924 537.114 283.924 539.136C282.935 541.159 281.549 542.733 279.765 543.858C277.992 544.983 275.924 545.545 273.56 545.545ZM273.56 541.932C275.356 541.932 276.833 541.472 277.992 540.551C279.151 539.631 280.009 538.42 280.566 536.92C281.123 535.42 281.401 533.795 281.401 532.045C281.401 530.295 281.123 528.665 280.566 527.153C280.009 525.642 279.151 524.42 277.992 523.489C276.833 522.557 275.356 522.091 273.56 522.091C271.765 522.091 270.288 522.557 269.129 523.489C267.969 524.42 267.112 525.642 266.555 527.153C265.998 528.665 265.719 530.295 265.719 532.045C265.719 533.795 265.998 535.42 266.555 536.92C267.112 538.42 267.969 539.631 269.129 540.551C270.288 541.472 271.765 541.932 273.56 541.932ZM307.724 518.818V522.568H295.587V545H291.565V518.818H307.724ZM319.941 545.614C318.282 545.614 316.776 545.301 315.424 544.676C314.072 544.04 312.998 543.125 312.202 541.932C311.407 540.727 311.009 539.273 311.009 537.568C311.009 536.068 311.305 534.852 311.896 533.92C312.487 532.977 313.276 532.239 314.265 531.705C315.254 531.17 316.344 530.773 317.538 530.511C318.742 530.239 319.952 530.023 321.168 529.864C322.759 529.659 324.049 529.506 325.038 529.403C326.038 529.29 326.765 529.102 327.219 528.841C327.685 528.58 327.918 528.125 327.918 527.477V527.341C327.918 525.659 327.458 524.352 326.538 523.42C325.629 522.489 324.248 522.023 322.396 522.023C320.475 522.023 318.969 522.443 317.879 523.284C316.788 524.125 316.021 525.023 315.577 525.977L311.759 524.614C312.441 523.023 313.35 521.784 314.487 520.898C315.634 520 316.884 519.375 318.237 519.023C319.6 518.659 320.941 518.477 322.259 518.477C323.1 518.477 324.066 518.58 325.157 518.784C326.259 518.977 327.322 519.381 328.344 519.994C329.379 520.608 330.237 521.534 330.918 522.773C331.6 524.011 331.941 525.67 331.941 527.75V545H327.918V541.455H327.714C327.441 542.023 326.987 542.631 326.35 543.278C325.714 543.926 324.867 544.477 323.81 544.932C322.754 545.386 321.464 545.614 319.941 545.614ZM320.555 542C322.146 542 323.487 541.688 324.577 541.062C325.68 540.438 326.509 539.631 327.066 538.642C327.634 537.653 327.918 536.614 327.918 535.523V531.841C327.748 532.045 327.373 532.233 326.793 532.403C326.225 532.562 325.566 532.705 324.816 532.83C324.077 532.943 323.356 533.045 322.651 533.136C321.958 533.216 321.396 533.284 320.964 533.341C319.918 533.477 318.941 533.699 318.032 534.006C317.134 534.301 316.407 534.75 315.85 535.352C315.305 535.943 315.032 536.75 315.032 537.773C315.032 539.17 315.549 540.227 316.583 540.943C317.629 541.648 318.952 542 320.555 542ZM375.011 541.25L374.533 552.5H370.374V545H366.965V541.25H375.011ZM339.283 518.818H343.306V541.25H353.192V518.818H357.215V541.25H367.102V518.818H371.124V545H339.283V518.818ZM391.558 545.545C389.035 545.545 386.859 544.989 385.029 543.875C383.211 542.75 381.808 541.182 380.819 539.17C379.842 537.148 379.353 534.795 379.353 532.114C379.353 529.432 379.842 527.068 380.819 525.023C381.808 522.966 383.183 521.364 384.944 520.216C386.717 519.057 388.785 518.477 391.148 518.477C392.512 518.477 393.859 518.705 395.188 519.159C396.518 519.614 397.728 520.352 398.819 521.375C399.91 522.386 400.779 523.727 401.427 525.398C402.075 527.068 402.398 529.125 402.398 531.568V533.273H382.217V529.795H398.308C398.308 528.318 398.012 527 397.421 525.841C396.842 524.682 396.012 523.767 394.933 523.097C393.864 522.426 392.603 522.091 391.148 522.091C389.546 522.091 388.16 522.489 386.989 523.284C385.83 524.068 384.938 525.091 384.313 526.352C383.688 527.614 383.376 528.966 383.376 530.409V532.727C383.376 534.705 383.717 536.381 384.398 537.756C385.092 539.119 386.052 540.159 387.279 540.875C388.506 541.58 389.933 541.932 391.558 541.932C392.614 541.932 393.569 541.784 394.421 541.489C395.285 541.182 396.029 540.727 396.654 540.125C397.279 539.511 397.762 538.75 398.103 537.841L401.989 538.932C401.58 540.25 400.893 541.409 399.927 542.409C398.961 543.398 397.768 544.17 396.347 544.727C394.927 545.273 393.33 545.545 391.558 545.545ZM426.04 530.068V533.818H411.586V530.068H426.04ZM412.54 518.818V545H408.518V518.818H412.54ZM429.109 518.818V545H425.086V518.818H429.109ZM453.978 530.068V533.818H439.523V530.068H453.978ZM440.478 518.818V545H436.455V518.818H440.478ZM457.046 518.818V545H453.023V518.818H457.046ZM472.097 545.614C470.438 545.614 468.933 545.301 467.58 544.676C466.228 544.04 465.154 543.125 464.359 541.932C463.563 540.727 463.165 539.273 463.165 537.568C463.165 536.068 463.461 534.852 464.052 533.92C464.643 532.977 465.433 532.239 466.421 531.705C467.41 531.17 468.501 530.773 469.694 530.511C470.898 530.239 472.109 530.023 473.325 529.864C474.915 529.659 476.205 529.506 477.194 529.403C478.194 529.29 478.921 529.102 479.376 528.841C479.842 528.58 480.075 528.125 480.075 527.477V527.341C480.075 525.659 479.614 524.352 478.694 523.42C477.785 522.489 476.404 522.023 474.552 522.023C472.631 522.023 471.126 522.443 470.035 523.284C468.944 524.125 468.177 525.023 467.734 525.977L463.915 524.614C464.597 523.023 465.506 521.784 466.643 520.898C467.79 520 469.04 519.375 470.393 519.023C471.756 518.659 473.097 518.477 474.415 518.477C475.256 518.477 476.222 518.58 477.313 518.784C478.415 518.977 479.478 519.381 480.501 519.994C481.535 520.608 482.393 521.534 483.075 522.773C483.756 524.011 484.097 525.67 484.097 527.75V545H480.075V541.455H479.87C479.597 542.023 479.143 542.631 478.506 543.278C477.87 543.926 477.023 544.477 475.967 544.932C474.91 545.386 473.62 545.614 472.097 545.614ZM472.711 542C474.302 542 475.643 541.688 476.734 541.062C477.836 540.438 478.665 539.631 479.222 538.642C479.79 537.653 480.075 536.614 480.075 535.523V531.841C479.904 532.045 479.529 532.233 478.95 532.403C478.381 532.562 477.722 532.705 476.972 532.83C476.234 532.943 475.512 533.045 474.808 533.136C474.114 533.216 473.552 533.284 473.12 533.341C472.075 533.477 471.097 533.699 470.188 534.006C469.29 534.301 468.563 534.75 468.006 535.352C467.461 535.943 467.188 536.75 467.188 537.773C467.188 539.17 467.705 540.227 468.739 540.943C469.785 541.648 471.109 542 472.711 542ZM507.19 545V522.5H500.235C498.667 522.5 497.434 522.864 496.536 523.591C495.638 524.318 495.19 525.318 495.19 526.591C495.19 527.841 495.593 528.824 496.4 529.54C497.218 530.256 498.337 530.614 499.758 530.614H508.212V534.364H499.758C497.985 534.364 496.457 534.051 495.173 533.426C493.888 532.801 492.9 531.909 492.207 530.75C491.513 529.58 491.167 528.193 491.167 526.591C491.167 524.977 491.531 523.591 492.258 522.432C492.985 521.273 494.025 520.381 495.377 519.756C496.741 519.131 498.36 518.818 500.235 518.818H511.008V545H507.19ZM489.735 545L497.167 531.977H501.531L494.099 545H489.735Z" fill="#247DAB"/>
<path d="M58.6092 390.76L48.4672 391.298L73.5703 309.856L83.5563 309.327L117.121 387.662L106.979 388.199L79.5447 322.214L78.9206 322.247L58.6092 390.76ZM60.7013 359.356L101.582 357.191L102.036 365.773L61.1558 367.938L60.7013 359.356ZM136.803 373.007L163.215 325.137L173.825 324.575L176.998 384.491L167.792 384.978L165.338 338.637L139.082 386.499L128.316 387.069L125.143 327.153L134.349 326.665L136.803 373.007ZM156.072 305.487L164.654 305.032C164.877 309.245 163.603 312.768 160.832 315.601C158.061 318.434 154.18 319.982 149.187 320.247C144.272 320.507 140.287 319.375 137.232 316.851C134.204 314.325 132.578 310.956 132.355 306.743L140.937 306.288C141.044 308.317 141.698 310.069 142.897 311.544C144.123 313.017 146.101 313.682 148.831 313.537C151.562 313.393 153.472 312.522 154.561 310.926C155.676 309.328 156.179 307.515 156.072 305.487ZM197.551 323.318L213.204 347.055L226.261 321.798L236.871 321.236L219.11 352.219L240.044 381.152L229.434 381.714L213.848 359.225L200.725 383.234L190.114 383.796L207.564 352.83L186.941 323.88L197.551 323.318ZM270.886 380.927C267.089 381.128 263.606 380.595 260.436 379.329C257.264 378.036 254.695 376.073 252.73 373.439C250.764 370.779 249.678 367.498 249.471 363.598C249.289 360.165 249.818 357.347 251.057 355.142C252.295 352.912 254.013 351.126 256.211 349.784C258.409 348.442 260.857 347.4 263.556 346.657C266.279 345.887 269.023 345.246 271.786 344.735C275.402 344.074 278.335 343.567 280.585 343.213C282.86 342.831 284.501 342.314 285.51 341.661C286.544 341.006 287.022 339.938 286.944 338.456L286.927 338.144C286.724 334.295 285.512 331.36 283.293 329.339C281.099 327.317 277.883 326.418 273.644 326.642C269.249 326.875 265.855 328.02 263.46 330.076C261.066 332.133 259.419 334.28 258.52 336.519L249.617 333.861C250.985 330.137 252.915 327.193 255.408 325.026C257.926 322.833 260.711 321.251 263.763 320.281C266.839 319.284 269.886 318.705 272.903 318.545C274.827 318.443 277.05 318.56 279.571 318.896C282.117 319.205 284.597 319.999 287.012 321.28C289.453 322.559 291.529 324.574 293.239 327.326C294.95 330.078 295.931 333.833 296.183 338.592L298.273 378.068L289.068 378.556L288.638 370.442L288.17 370.467C287.614 371.8 286.648 373.247 285.27 374.806C283.892 376.365 282.022 377.729 279.658 378.898C277.295 380.066 274.371 380.742 270.886 380.927ZM271.853 372.583C275.493 372.39 278.524 371.512 280.945 369.95C283.392 368.386 285.192 366.439 286.347 364.109C287.527 361.778 288.051 359.364 287.919 356.867L287.473 348.442C287.107 348.93 286.272 349.405 284.966 349.865C283.685 350.298 282.194 350.703 280.493 351.08C278.817 351.43 277.178 351.751 275.576 352.045C274 352.311 272.721 352.535 271.739 352.717C269.363 353.156 267.154 353.781 265.111 354.594C263.092 355.379 261.482 356.494 260.281 357.94C259.104 359.358 258.578 361.238 258.702 363.578C258.871 366.777 260.182 369.133 262.636 370.646C265.114 372.131 268.186 372.777 271.853 372.583ZM309.771 377.459L309.316 368.878L311.501 368.762C313.295 368.667 314.772 368.237 315.931 367.471C317.089 366.68 317.984 365.367 318.617 363.534C319.275 361.674 319.714 359.121 319.933 355.876C320.177 352.603 320.257 348.453 320.173 343.424L319.861 316.841L359.805 314.725L362.978 374.642L353.772 375.129L351.053 323.795L329.053 324.96L329.249 346.386C329.301 351.312 329.088 355.665 328.61 359.446C328.157 363.199 327.321 366.372 326.102 368.967C324.91 371.559 323.242 373.551 321.099 374.943C318.956 376.334 316.22 377.118 312.892 377.294L309.771 377.459ZM412.154 333.389L412.608 341.971L377.657 343.822L377.203 335.24L412.154 333.389ZM434.918 370.832L424.776 371.369L449.879 289.927L459.865 289.398L493.43 367.733L483.288 368.27L455.853 302.285L455.229 302.318L434.918 370.832ZM437.01 339.427L477.89 337.262L478.345 345.844L437.464 348.009L437.01 339.427ZM504.625 367.14L501.452 307.224L510.658 306.737L512.038 332.794L518.123 332.472L538.275 305.274L550.134 304.646L527.477 334.793L553.619 364.545L541.76 365.173L520.762 340.938L512.492 341.376L513.831 366.653L504.625 367.14ZM563.624 364.016L560.451 304.1L584.948 302.802C591.397 302.461 596.598 303.646 600.549 306.357C604.5 309.069 606.602 312.817 606.855 317.602C607.048 321.243 606.118 324.121 604.066 326.238C602.012 328.329 599.313 329.815 595.97 330.696C598.197 330.891 600.384 331.557 602.53 332.696C604.703 333.832 606.536 335.456 608.03 337.568C609.522 339.653 610.352 342.269 610.519 345.416C610.681 348.484 610.046 351.269 608.614 353.77C607.182 356.272 605.047 358.301 602.208 359.86C599.37 361.418 595.923 362.305 591.866 362.52L563.624 364.016ZM571.916 355.127L591.42 354.094C594.592 353.926 597.036 353.041 598.75 351.437C600.465 349.834 601.253 347.732 601.116 345.131C600.952 342.037 599.926 339.653 598.038 337.98C596.148 336.28 593.617 335.515 590.445 335.683L570.941 336.715L571.916 355.127ZM570.519 328.758L586.278 327.923C588.749 327.792 590.85 327.342 592.583 326.572C594.314 325.777 595.614 324.717 596.483 323.393C597.376 322.042 597.776 320.482 597.682 318.714C597.549 316.191 596.391 314.27 594.209 312.952C592.025 311.607 589.087 311.032 585.394 311.228L569.635 312.063L570.519 328.758ZM643.011 361.22C639.215 361.421 635.731 360.888 632.561 359.622C629.389 358.329 626.82 356.366 624.855 353.732C622.889 351.072 621.803 347.791 621.596 343.89C621.414 340.458 621.943 337.639 623.182 335.435C624.42 333.205 626.138 331.419 628.336 330.077C630.534 328.735 632.982 327.693 635.681 326.95C638.404 326.18 641.148 325.539 643.911 325.028C647.527 324.367 650.46 323.859 652.71 323.505C654.985 323.124 656.626 322.607 657.635 321.954C658.669 321.299 659.147 320.231 659.069 318.748L659.052 318.436C658.849 314.588 657.637 311.653 655.418 309.632C653.224 307.61 650.008 306.711 645.769 306.935C641.374 307.168 637.98 308.313 635.585 310.369C633.191 312.426 631.544 314.573 630.645 316.811L621.742 314.154C623.11 310.43 625.04 307.485 627.533 305.319C630.051 303.126 632.836 301.544 635.888 300.574C638.964 299.577 642.011 298.998 645.028 298.838C646.952 298.736 649.175 298.853 651.696 299.189C654.242 299.498 656.722 300.292 659.137 301.572C661.578 302.851 663.654 304.867 665.364 307.619C667.075 310.371 668.056 314.126 668.308 318.885L670.398 358.361L661.193 358.849L660.763 350.735L660.295 350.76C659.74 352.093 658.773 353.539 657.395 355.099C656.017 356.658 654.147 358.022 651.783 359.19C649.42 360.359 646.496 361.035 643.011 361.22ZM643.978 352.876C647.618 352.683 650.649 351.805 653.07 350.243C655.517 348.679 657.317 346.732 658.472 344.402C659.652 342.071 660.176 339.657 660.044 337.16L659.598 328.734C659.232 329.223 658.397 329.698 657.091 330.158C655.81 330.591 654.319 330.996 652.618 331.373C650.942 331.722 649.303 332.044 647.701 332.337C646.125 332.603 644.846 332.828 643.864 333.01C641.488 333.449 639.279 334.074 637.236 334.887C635.217 335.672 633.607 336.787 632.406 338.233C631.229 339.651 630.703 341.53 630.827 343.871C630.996 347.07 632.307 349.425 634.761 350.938C637.239 352.424 640.311 353.07 643.978 352.876Z" fill="white"/>
<path d="M305.682 149V122.818H316.386C319.205 122.818 321.443 123.455 323.102 124.727C324.761 126 325.591 127.682 325.591 129.773C325.591 131.364 325.119 132.597 324.176 133.472C323.233 134.335 322.023 134.92 320.545 135.227C321.511 135.364 322.449 135.705 323.358 136.25C324.278 136.795 325.04 137.545 325.642 138.5C326.244 139.443 326.545 140.602 326.545 141.977C326.545 143.318 326.205 144.517 325.523 145.574C324.841 146.631 323.864 147.466 322.591 148.08C321.318 148.693 319.795 149 318.023 149H305.682ZM309.5 145.318H318.023C319.409 145.318 320.494 144.989 321.278 144.33C322.063 143.67 322.455 142.773 322.455 141.636C322.455 140.284 322.063 139.222 321.278 138.449C320.494 137.665 319.409 137.273 318.023 137.273H309.5V145.318ZM309.5 133.795H316.386C317.466 133.795 318.392 133.648 319.165 133.352C319.938 133.045 320.528 132.614 320.938 132.057C321.358 131.489 321.568 130.818 321.568 130.045C321.568 128.943 321.108 128.08 320.188 127.455C319.267 126.818 318 126.5 316.386 126.5H309.5V133.795ZM343.271 149.545C340.908 149.545 338.834 148.983 337.05 147.858C335.277 146.733 333.891 145.159 332.891 143.136C331.902 141.114 331.408 138.75 331.408 136.045C331.408 133.318 331.902 130.937 332.891 128.903C333.891 126.869 335.277 125.29 337.05 124.165C338.834 123.04 340.908 122.477 343.271 122.477C345.635 122.477 347.703 123.04 349.476 124.165C351.26 125.29 352.646 126.869 353.635 128.903C354.635 130.937 355.135 133.318 355.135 136.045C355.135 138.75 354.635 141.114 353.635 143.136C352.646 145.159 351.26 146.733 349.476 147.858C347.703 148.983 345.635 149.545 343.271 149.545ZM343.271 145.932C345.067 145.932 346.544 145.472 347.703 144.551C348.862 143.631 349.72 142.42 350.277 140.92C350.834 139.42 351.112 137.795 351.112 136.045C351.112 134.295 350.834 132.665 350.277 131.153C349.72 129.642 348.862 128.42 347.703 127.489C346.544 126.557 345.067 126.091 343.271 126.091C341.476 126.091 339.999 126.557 338.839 127.489C337.68 128.42 336.822 129.642 336.266 131.153C335.709 132.665 335.43 134.295 335.43 136.045C335.43 137.795 335.709 139.42 336.266 140.92C336.822 142.42 337.68 143.631 338.839 144.551C339.999 145.472 341.476 145.932 343.271 145.932ZM358.48 156.5V145.25H360.662C361.196 144.693 361.656 144.091 362.043 143.443C362.429 142.795 362.764 142.028 363.048 141.142C363.344 140.244 363.594 139.153 363.798 137.869C364.003 136.574 364.185 135.011 364.344 133.182L365.23 122.818H381.866V145.25H385.889V156.5H381.866V149H362.503V156.5H358.48ZM365.23 145.25H377.844V126.568H368.98L368.298 133.182C368.014 135.92 367.662 138.312 367.241 140.358C366.821 142.403 366.151 144.034 365.23 145.25ZM398.933 149.614C397.274 149.614 395.768 149.301 394.416 148.676C393.064 148.04 391.99 147.125 391.195 145.932C390.399 144.727 390.001 143.273 390.001 141.568C390.001 140.068 390.297 138.852 390.888 137.92C391.479 136.977 392.268 136.239 393.257 135.705C394.246 135.17 395.337 134.773 396.53 134.511C397.734 134.239 398.945 134.023 400.161 133.864C401.751 133.659 403.041 133.506 404.03 133.403C405.03 133.29 405.757 133.102 406.212 132.841C406.678 132.58 406.911 132.125 406.911 131.477V131.341C406.911 129.659 406.45 128.352 405.53 127.42C404.621 126.489 403.24 126.023 401.388 126.023C399.467 126.023 397.962 126.443 396.871 127.284C395.78 128.125 395.013 129.023 394.57 129.977L390.751 128.614C391.433 127.023 392.342 125.784 393.479 124.898C394.626 124 395.876 123.375 397.229 123.023C398.592 122.659 399.933 122.477 401.251 122.477C402.092 122.477 403.058 122.58 404.149 122.784C405.251 122.977 406.314 123.381 407.337 123.994C408.371 124.608 409.229 125.534 409.911 126.773C410.592 128.011 410.933 129.67 410.933 131.75V149H406.911V145.455H406.706C406.433 146.023 405.979 146.631 405.342 147.278C404.706 147.926 403.859 148.477 402.803 148.932C401.746 149.386 400.456 149.614 398.933 149.614ZM399.547 146C401.138 146 402.479 145.688 403.57 145.062C404.672 144.438 405.501 143.631 406.058 142.642C406.626 141.653 406.911 140.614 406.911 139.523V135.841C406.74 136.045 406.365 136.233 405.786 136.403C405.217 136.562 404.558 136.705 403.808 136.83C403.07 136.943 402.348 137.045 401.643 137.136C400.95 137.216 400.388 137.284 399.956 137.341C398.911 137.477 397.933 137.699 397.024 138.006C396.126 138.301 395.399 138.75 394.842 139.352C394.297 139.943 394.024 140.75 394.024 141.773C394.024 143.17 394.541 144.227 395.575 144.943C396.621 145.648 397.945 146 399.547 146Z" fill="#247DAB"/>
<path d="M253.682 195V168.818H274.273V195H270.25V172.568H257.705V195H253.682ZM285.642 189.068L298.256 168.818H302.892V195H298.869V174.75L286.324 195H281.619V168.818H285.642V189.068ZM306.697 172.568V168.818H327.97V172.568H319.379V195H315.357V172.568H306.697ZM337.315 178.295H344.815C347.884 178.295 350.23 179.074 351.855 180.631C353.48 182.187 354.293 184.159 354.293 186.545C354.293 188.114 353.929 189.54 353.202 190.824C352.474 192.097 351.406 193.114 349.997 193.875C348.588 194.625 346.861 195 344.815 195H333.838V168.818H337.861V191.25H344.815C346.406 191.25 347.713 190.83 348.736 189.989C349.759 189.148 350.27 188.068 350.27 186.75C350.27 185.364 349.759 184.233 348.736 183.358C347.713 182.483 346.406 182.045 344.815 182.045H337.315V178.295ZM371.393 195.545C368.871 195.545 366.695 194.989 364.865 193.875C363.047 192.75 361.643 191.182 360.655 189.17C359.678 187.148 359.189 184.795 359.189 182.114C359.189 179.432 359.678 177.068 360.655 175.023C361.643 172.966 363.018 171.364 364.78 170.216C366.553 169.057 368.621 168.477 370.984 168.477C372.348 168.477 373.695 168.705 375.024 169.159C376.354 169.614 377.564 170.352 378.655 171.375C379.746 172.386 380.615 173.727 381.263 175.398C381.911 177.068 382.234 179.125 382.234 181.568V183.273H362.053V179.795H378.143C378.143 178.318 377.848 177 377.257 175.841C376.678 174.682 375.848 173.767 374.768 173.097C373.7 172.426 372.439 172.091 370.984 172.091C369.382 172.091 367.996 172.489 366.825 173.284C365.666 174.068 364.774 175.091 364.149 176.352C363.524 177.614 363.212 178.966 363.212 180.409V182.727C363.212 184.705 363.553 186.381 364.234 187.756C364.928 189.119 365.888 190.159 367.115 190.875C368.342 191.58 369.768 191.932 371.393 191.932C372.45 191.932 373.405 191.784 374.257 191.489C375.121 191.182 375.865 190.727 376.49 190.125C377.115 189.511 377.598 188.75 377.939 187.841L381.825 188.932C381.416 190.25 380.729 191.409 379.763 192.409C378.797 193.398 377.604 194.17 376.183 194.727C374.763 195.273 373.166 195.545 371.393 195.545ZM388.354 195V168.818H399.058C401.876 168.818 404.115 169.455 405.774 170.727C407.433 172 408.263 173.682 408.263 175.773C408.263 177.364 407.791 178.597 406.848 179.472C405.905 180.335 404.695 180.92 403.217 181.227C404.183 181.364 405.121 181.705 406.03 182.25C406.95 182.795 407.712 183.545 408.314 184.5C408.916 185.443 409.217 186.602 409.217 187.977C409.217 189.318 408.876 190.517 408.195 191.574C407.513 192.631 406.536 193.466 405.263 194.08C403.99 194.693 402.467 195 400.695 195H388.354ZM392.172 191.318H400.695C402.081 191.318 403.166 190.989 403.95 190.33C404.734 189.67 405.126 188.773 405.126 187.636C405.126 186.284 404.734 185.222 403.95 184.449C403.166 183.665 402.081 183.273 400.695 183.273H392.172V191.318ZM392.172 179.795H399.058C400.138 179.795 401.064 179.648 401.837 179.352C402.609 179.045 403.2 178.614 403.609 178.057C404.03 177.489 404.24 176.818 404.24 176.045C404.24 174.943 403.78 174.08 402.859 173.455C401.939 172.818 400.672 172.5 399.058 172.5H392.172V179.795ZM423.011 195.614C421.352 195.614 419.847 195.301 418.494 194.676C417.142 194.04 416.068 193.125 415.273 191.932C414.477 190.727 414.08 189.273 414.08 187.568C414.08 186.068 414.375 184.852 414.966 183.92C415.557 182.977 416.347 182.239 417.335 181.705C418.324 181.17 419.415 180.773 420.608 180.511C421.813 180.239 423.023 180.023 424.239 179.864C425.83 179.659 427.119 179.506 428.108 179.403C429.108 179.29 429.835 179.102 430.29 178.841C430.756 178.58 430.989 178.125 430.989 177.477V177.341C430.989 175.659 430.528 174.352 429.608 173.42C428.699 172.489 427.318 172.023 425.466 172.023C423.545 172.023 422.04 172.443 420.949 173.284C419.858 174.125 419.091 175.023 418.648 175.977L414.83 174.614C415.511 173.023 416.42 171.784 417.557 170.898C418.705 170 419.955 169.375 421.307 169.023C422.67 168.659 424.011 168.477 425.33 168.477C426.17 168.477 427.136 168.58 428.227 168.784C429.33 168.977 430.392 169.381 431.415 169.994C432.449 170.608 433.307 171.534 433.989 172.773C434.67 174.011 435.011 175.67 435.011 177.75V195H430.989V191.455H430.784C430.511 192.023 430.057 192.631 429.42 193.278C428.784 193.926 427.938 194.477 426.881 194.932C425.824 195.386 424.534 195.614 423.011 195.614ZM423.625 192C425.216 192 426.557 191.688 427.648 191.062C428.75 190.438 429.58 189.631 430.136 188.642C430.705 187.653 430.989 186.614 430.989 185.523V181.841C430.818 182.045 430.443 182.233 429.864 182.403C429.295 182.562 428.636 182.705 427.886 182.83C427.148 182.943 426.426 183.045 425.722 183.136C425.028 183.216 424.466 183.284 424.034 183.341C422.989 183.477 422.011 183.699 421.102 184.006C420.205 184.301 419.477 184.75 418.92 185.352C418.375 185.943 418.102 186.75 418.102 187.773C418.102 189.17 418.619 190.227 419.653 190.943C420.699 191.648 422.023 192 423.625 192ZM458.104 195V172.5H451.149C449.581 172.5 448.348 172.864 447.45 173.591C446.553 174.318 446.104 175.318 446.104 176.591C446.104 177.841 446.507 178.824 447.314 179.54C448.132 180.256 449.251 180.614 450.672 180.614H459.126V184.364H450.672C448.899 184.364 447.371 184.051 446.087 183.426C444.803 182.801 443.814 181.909 443.121 180.75C442.428 179.58 442.081 178.193 442.081 176.591C442.081 174.977 442.445 173.591 443.172 172.432C443.899 171.273 444.939 170.381 446.291 169.756C447.655 169.131 449.274 168.818 451.149 168.818H461.922V195H458.104ZM440.649 195L448.081 181.977H452.445L445.013 195H440.649Z" fill="#247DAB"/>
</svg>
